<svg id="Capa_1" data-name="Capa 1" xmlns="http://www.w3.org/2000/svg" viewBox="0 0 35 35"><path d="M14.2,19.11c-.09-.11-.2-.19-.29-.29l-3.42-3.55c-.19-.21-.4-.4-.6-.61-1.05-1.12-2.13-2.22-3.2-3.33L6.33,11l-2-2.11-.52-.53c-.26-.26-.51-.53-.76-.8-.06,0,0-.08,0-.1a2.3,2.3,0,0,1,.51-.1H31.25a2.25,2.25,0,0,1,.92.18c.08,0,.1.06,0,.14-.72.74-1.45,1.48-2.17,2.23l-2.73,2.82-3.68,3.78c-.21.21-.42.44-.63.66l-.87.89L21,19.24l-2.2,2.27a2,2,0,0,1-.53.42,1.33,1.33,0,0,1-1.37-.17,7.18,7.18,0,0,1-.93-.9c-.5-.5-1-1-1.48-1.51l0,0-.14-.15A.23.23,0,0,0,14.2,19.11Z" style="fill:#fff"/><path d="M11.41,18.76l.64-.61c.06-.06.09-.06.15,0l1,1a.23.23,0,0,0,.07.07l.2.21.06.07,2.58,2.64a2.27,2.27,0,0,0,1.62.68A2.23,2.23,0,0,0,19,22.34a4.87,4.87,0,0,0,.75-.69l3-3.09c.13-.13.26-.26.38-.4s.1-.07.17,0l.85.82,4.71,4.56,2.95,2.86.75.72c.06.06.06.09,0,.14a2.1,2.1,0,0,1-1.25.41H3.76a2,2,0,0,1-1.08-.28c-.08,0-.1-.07,0-.14l1-1c.85-.77,1.66-1.59,2.49-2.38l4.05-3.94,1.11-1.07Z" style="fill:#fff"/><path d="M1.48,16.38c0-.79,0-1.58,0-2.37,0-1.36,0-2.71,0-4.07A2.79,2.79,0,0,1,2,8.2,1.92,1.92,0,0,1,2.2,8c0-.06.09-.06.14,0l.35.36,6.15,6.34,2.61,2.69c.15.15.14.14,0,.29-.35.35-.72.67-1.06,1l-.39.37-2,2L3.84,25,2.45,26.38l-.36.35c0,.05-.08.06-.13,0A2.72,2.72,0,0,1,1.5,25.4c0-.13,0-.26,0-.39V16.53A.38.38,0,0,0,1.48,16.38Z" style="fill:#fff"/><path d="M24,17.18l1.37-1.41c1.8-1.86,3.61-3.72,5.41-5.59.66-.68,1.32-1.35,2-2,.07-.08.1-.08.17,0a2.77,2.77,0,0,1,.55,1.73V17.1c0,.63,0,1.26,0,1.9,0,.05,0,.1,0,.15v5.93a2.88,2.88,0,0,1-.27,1.29c-.12.24-.12.24-.32.06L31.5,25.05l-4.15-4-3.06-3-.49-.48c-.05-.05-.06-.08,0-.13A3.07,3.07,0,0,0,24,17.18Z" style="fill:#fff"/></svg>