<svg id="Capa_1" data-name="Capa 1" xmlns="http://www.w3.org/2000/svg" viewBox="0 0 35 35"><path d="M13.93,29.22c0,.75,0,1.49,0,2.23a1.21,1.21,0,0,1-.65,1,.9.9,0,0,1-.77.06,15.2,15.2,0,0,1-5.76-3.54A15,15,0,0,1,2.3,20.55,15,15,0,0,1,5.15,8.64a14.82,14.82,0,0,1,9.38-5.88,15,15,0,0,1,13.76,4.1,14.43,14.43,0,0,1,4.49,8.72,15.12,15.12,0,0,1-5.26,14.05,14.73,14.73,0,0,1-4.77,2.77,1.17,1.17,0,0,1-1.67-1.18c0-1.18,0-2.36,0-3.54,0-.58,0-1.17,0-1.75a9,9,0,0,0-.23-1.17c.54-.15,1.13-.27,1.7-.45a8.59,8.59,0,0,0,4-2.41,7,7,0,0,0,1.7-5.38,7.62,7.62,0,0,0-1.32-4,6.32,6.32,0,0,0-.52-.64.24.24,0,0,1,0-.29,4.82,4.82,0,0,0-.16-4,.57.57,0,0,0-.65-.35,6.41,6.41,0,0,0-4,1.85.36.36,0,0,1-.42.11,12.69,12.69,0,0,0-4.63-.44,10.14,10.14,0,0,0-2.66.49c-.07,0-.2,0-.26-.1a6.48,6.48,0,0,0-3.23-1.79c-.31-.06-.63-.07-1-.12a.38.38,0,0,0-.42.21,4.47,4.47,0,0,0-.55,2.84,3.38,3.38,0,0,0,.5,1.56,6.85,6.85,0,0,0-1.73,3,7.63,7.63,0,0,0,.48,5.85,7.34,7.34,0,0,0,3.52,3.15,11.94,11.94,0,0,0,2.79.89l.34.07a4.35,4.35,0,0,0-.34,1.9.21.21,0,0,1-.18.24,4,4,0,0,1-4.59-1.55,2.9,2.9,0,0,0-2.07-1.41,2,2,0,0,0-.69,0c-.31.07-.36.25-.14.5a1.79,1.79,0,0,0,.25.23,4.46,4.46,0,0,1,1.6,2,4.25,4.25,0,0,0,4,2.65,13.83,13.83,0,0,0,1.57-.12A2.24,2.24,0,0,0,13.93,29.22Z" style="fill:#fff"/></svg>