<svg id="Capa_1" data-name="Capa 1" xmlns="http://www.w3.org/2000/svg" viewBox="0 0 35 35"><path d="M12.88,31.71V12.88h5.53v2.41c.37-.39.58-.59.77-.81,2.47-2.76,9.87-3,11.86,1.89a7,7,0,0,1,.56,2.46c.06,4.1,0,8.21,0,12.31,0,.16,0,.32-.07.57H26.47c-.59,0-.42-.46-.43-.78,0-2.87,0-5.75,0-8.62,0-.3,0-.6,0-.9a3.62,3.62,0,0,0-3.65-3.66,3.88,3.88,0,0,0-3.93,3.81c-.05,3,0,6,0,9,0,1.35.17,1.2-1.25,1.21Z" style="fill:#fff"/><path d="M9.51,31.66H4V12.9H9.51Z" style="fill:#fff"/><path d="M6.7,3.29a3.41,3.41,0,1,1,0,6.82A3.34,3.34,0,0,1,3.36,6.7,3.33,3.33,0,0,1,6.7,3.29Z" style="fill:#fff"/></svg>