<svg id="Capa_1" data-name="Capa 1" xmlns="http://www.w3.org/2000/svg" viewBox="0 0 35 35"><path d="M32.61,7.1c-.38,2.6-.75,5.2-1.15,7.79q-.93,5.88-1.9,11.75a9.42,9.42,0,0,1-.5,2,2,2,0,0,1-2.65,1.3,6.37,6.37,0,0,1-1.77-.83c-2.63-1.82-5.24-3.68-7.86-5.53-1.46-1-1.53-1.85-.22-3.1,2.55-2.44,5.13-4.85,7.68-7.29a9,9,0,0,0,1.15-1.38,1.62,1.62,0,0,0,.12-.68c-.25,0-.55-.17-.75-.08A11.19,11.19,0,0,0,23,12c-3.48,2.33-7,4.66-10.4,7a5.45,5.45,0,0,1-5.06.8c-1.4-.45-2.8-.94-4.17-1.49-.39-.15-.91-.56-.93-.87s.49-.7.81-1a2.25,2.25,0,0,1,.71-.4c7.24-3.17,14.48-6.36,21.74-9.5,1.27-.55,2.62-.94,4-1.37A5.54,5.54,0,0,1,30.89,5c1.05-.09,1.53.33,1.62,1.38,0,.24,0,.49,0,.74Z" style="fill:#fff"/></svg>