<svg id="Capa_1" data-name="Capa 1" xmlns="http://www.w3.org/2000/svg" viewBox="0 0 35 35"><path d="M17.12,12.66a15.12,15.12,0,0,1,0-2.35A6.5,6.5,0,0,1,27.72,6.48a1.2,1.2,0,0,0,1.45.25c.94-.45,1.89-.84,2.95-1.3a9.51,9.51,0,0,1-2.24,3.39l2.89-.76a7.5,7.5,0,0,1-2.4,2.68,1.24,1.24,0,0,0-.49.88C30.23,22.62,21.39,30,11.76,30a19.71,19.71,0,0,1-9.15-2.27l-.38-.25c1.56-.22,3.06-.36,4.54-.65a7.75,7.75,0,0,0,3.94-1.93,27.73,27.73,0,0,1-3.32-1.65,6.16,6.16,0,0,1-2.2-3.05H7.7l.09-.2a6.57,6.57,0,0,1-4.65-6l2.69.71L6,14.49c-2.81-2.29-3.66-5-2-8.43C7.59,9.87,11.61,12.6,17.12,12.66Z" style="fill:#fff"/></svg>