<svg id="Capa_1" data-name="Capa 1" xmlns="http://www.w3.org/2000/svg" viewBox="0 0 35 35"><path d="M2.48,33.24c.14-1.15.27-2.23.41-3.3s.24-2,.43-3a5.79,5.79,0,0,0-.4-3.47,15.76,15.76,0,1,1,14.62,9.81,16,16,0,0,1-6.16-1.17A2.3,2.3,0,0,0,10.19,32c-2.29.37-4.58.78-6.87,1.17C3.08,33.19,2.84,33.2,2.48,33.24ZM5.73,30c1.64-.29,3.12-.58,4.6-.78a3.05,3.05,0,0,1,1.56.19,13.81,13.81,0,0,0,6.71,1.18A13.14,13.14,0,1,0,6,23.86a3.24,3.24,0,0,1,.32,1.69C6.18,27,5.94,28.41,5.73,30Z" style="fill:#fff"/><path d="M14.78,13.71a9.85,9.85,0,0,1-1,1.49.81.81,0,0,0-.23,1A12,12,0,0,0,19.19,22c.21.11.67-.06.92-.24a18.13,18.13,0,0,1,1.41-1.24,1.36,1.36,0,0,1,1.18-.06,12.82,12.82,0,0,1,1.92,1.39,1,1,0,0,1,.14,1.51c-.33.43-.68.86-1.05,1.26a2.51,2.51,0,0,1-2.53.81,14.56,14.56,0,0,1-10.12-7.78,13.41,13.41,0,0,1-1.16-3A3.93,3.93,0,0,1,12,10.24c.48-.25,1-.37,1.32.16C13.86,11.43,14.27,12.53,14.78,13.71Z" style="fill:#fff"/></svg>